<svg width="48" height="48" fill="none" xmlns="http://www.w3.org/2000/svg" role="img" viewBox="0 0 80 80">
  <path d="M65.6 64.4 30.4 74.9c-3.2 1-6.5-.9-7.5-4L8.6 23.1c-1-3.2.9-6.5 4-7.5L47.8 5.1c3.2-1 6.5.9 7.5 4l14.3 47.8c1 3.2-.8 6.5-4 7.5Z" fill="#A8C0FF"></path>
  <path d="m61.2 68.9-36.6 3.5c-3.3.3-6.2-2.1-6.6-5.4l-4.8-49.7c-.3-3.3 2.1-6.2 5.4-6.6l36.6-3.5c3.3-.3 6.2 2.1 6.6 5.4l4.8 49.7c.4 3.4-2.1 6.3-5.4 6.6Z" fill="#fff" stroke="#000" stroke-miterlimit="10" stroke-linecap="round" stroke-linejoin="round"></path>
  <path d="M37.7 21.4c.2-.2.6-.3.9-.1l7.8 5.4.9 9.1c0 .2-.1.3-.3.4l-14.6 1.4c-.2 0-.3-.1-.4-.3l-.9-9.1 6.6-6.8ZM49.2 25c0-.4-.3-.8-.6-1.1l-9.8-6.8c-.6-.4-1.5-.3-2 .2l-8.3 8.5c-.3.3-.4.7-.4 1.2.1 1.2 1.6 1.8 2.5.9l7.5-7.7 8.9 6.1c.9.7 2.3-.1 2.2-1.3Z" fill="#094BF4"></path>
  <path d="m42.9 31.4.3 3.3c0 .4-.2.7-.6.7l-6.1.6c-.4 0-.7-.2-.7-.6l-.3-3.2c-.2-2.1 1.2-4 3.3-4.2 2-.2 3.9 1.3 4.1 3.4Zm-2.8-5.5-.1-1c0-.5-.5-.8-.9-.8l-1.1.1c-.5 0-.8.5-.8.9l.1 1.1c0 .5.5.8.9.8l1.1-.1c.5-.1.8-.5.8-1Z" fill="#fff"></path>
  <path d="M24.7 9.8c-.2-.2-.5-.5-.8-.7-.6-.4-1.2-.6-1.9-.6-.2 0-.8.1-1.2.3-.1 0-.2.1-.3.2-1.2.7-1.8 1.7-1.8 3.1v.5c.3 2.5.8 7.4 1.2 10 .2 1.1.8 1.8 1.8 2.1 1.6.5 3.2-.7 3.2-2.4v-.4c-.3-2.2-.7-6.8-1-9-.1-.8-.7-1.4-1.5-1.4-1-.1-1.8.8-1.7 1.7.1.9.4 4.3.5 5.2.1 1 .3 2 .4 3 0 .3.2.5.5.5s.6-.2.5-.5v-.2c-.3-1.9-.6-6.1-.9-8V13c0-.3.2-.5.5-.5.2 0 .5.1.6.3v.2c.3 2.2.7 6.8 1 9 .1.6-.1 1.1-.6 1.4-.5.3-1 .4-1.5.1-.4-.2-.7-.6-.7-1.1-.4-2.5-.8-7.5-1.2-10-.2-1.2.5-2.2 1.6-2.6.7-.3 1.4-.2 2.1.2l1.2-.2ZM24.3 50.6c-.3 0-.5-.2-.5-.5s.2-.5.4-.5l32.1-3.2c.3 0 .5.2.5.4 0 .3-.2.5-.4.5l-32.1 3.3c.1 0 0 0 0 0Zm.9 12.5 32.1-3.2c.3 0 .5-.3.4-.5 0-.3-.3-.5-.5-.4l-32.1 3.2c-.3 0-.5.3-.4.5 0 .2.2.4.5.4Zm-.5-9.2 19.6-2c.3 0 .5-.3.4-.5 0-.3-.3-.5-.5-.4l-19.6 2c-.3 0-.5.3-.4.5-.1.2.2.4.5.4-.1 0-.1 0 0 0Z" fill="#000"></path>
  <path d="M59.6 75c-8.8.2-15.9-7-15.7-15.7.2-8.2 6.9-15 15.1-15.1 8.8-.2 15.9 7 15.7 15.7-.2 8.3-6.9 15-15.1 15.1Z" fill="#12CA5B"></path>
  <path d="M68.2 54.2c-.8-.8-2-.8-2.8 0l-8.6 8.6-3.7-3.7c-.8-.8-2-.8-2.8 0-.8.8-.8 2 0 2.8l5.3 5.3c.7.7 1.7.7 2.4 0L68.2 57c.8-.7.8-2 0-2.8Z" fill="#fff"></path>
</svg>
