<svg width="48" height="48" fill="none" xmlns="http://www.w3.org/2000/svg" role="img" viewBox="0 0 80 80"><path d="M70.5 48.6 18.3 64.3c-2.1.6-4.3-.6-5-2.7L2.7 26c-.6-2.1.6-4.3 2.7-5L57.5 5.3c2.1-.6 4.3.6 5 2.7l10.7 35.6c.6 2.1-.6 4.3-2.7 5Z" fill="#fff"></path><path fill-rule="evenodd" clip-rule="evenodd" d="M57.64 5.78h-.003L5.551 21.478c-1.85.62-2.892 2.553-2.371 4.383v.003l10.597 35.586c.62 1.85 2.553 2.892 4.382 2.371h.004l52.186-15.697c1.85-.62 2.892-2.553 2.371-4.382v-.004L62.022 8.151c-.62-1.85-2.553-2.892-4.382-2.371Zm-.277-.96c2.367-.677 4.83.678 5.611 3.022l.005.014L73.68 43.463c.676 2.367-.679 4.83-3.023 5.611l-.014.005L18.437 64.78c-2.367.676-4.83-.679-5.611-3.023l-.005-.015L2.219 26.137c-.676-2.367.679-4.83 3.023-5.611l.014-.005L57.363 4.82Z" fill="#000"></path><path d="M70 67.7H10.1c-2.3 0-4.1-1.8-4.1-4.1V29.4c0-.3.1-.5.3-.7l2.1-2.4c.4-.4.3-1 0-1.4l-2.1-2c-.2-.2-.3-.5-.3-.8v-3.6c0-2.3 1.8-4.1 4.1-4.1H70c2.3 0 4.1 1.8 4.1 4.1v3.6c0 .3-.1.5-.3.7l-2.1 2.1c-.4.4-.4 1 0 1.4l2.2 2.4c.2.2.3.4.3.7v34.3c-.1 2.2-1.9 4-4.2 4Z" fill="#fff"></path><path fill-rule="evenodd" clip-rule="evenodd" d="M10.1 14.9c-2.024 0-3.6 1.576-3.6 3.6v3.6c0 .198.067.357.15.443l2.095 1.995c.02.019.038.04.055.062.378.505.597 1.396-.034 2.04l-2.09 2.39a.46.46 0 0 1-.022.023.549.549 0 0 0-.122.163.437.437 0 0 0-.032.184v34.2c0 2.024 1.576 3.6 3.6 3.6H70a3.688 3.688 0 0 0 3.7-3.512V29.4a.437.437 0 0 0-.032-.184.55.55 0 0 0-.137-.178l-2.193-2.393a1.466 1.466 0 0 1 .008-2.099l2.1-2.1a.55.55 0 0 0 .122-.162.437.437 0 0 0 .032-.184v-3.6c0-2.024-1.576-3.6-3.6-3.6H10.1Zm-4.6 3.6c0-2.576 2.024-4.6 4.6-4.6H70c2.576 0 4.6 2.024 4.6 4.6v3.6c0 .208-.035.404-.118.59a1.537 1.537 0 0 1-.328.463l-2.1 2.1a.468.468 0 0 0 .015.71l2.193 2.392c.126.127.24.274.32.454.083.187.118.383.118.591v34.323A4.688 4.688 0 0 1 70 68.2H10.1c-2.576 0-4.6-2.024-4.6-4.6V29.4c0-.208.035-.404.118-.59.08-.179.191-.324.316-.451l2.09-2.388a.553.553 0 0 1 .022-.025.401.401 0 0 0 .117-.321.793.793 0 0 0-.141-.395l-2.076-1.976c-.315-.315-.446-.755-.446-1.154v-3.6Z" fill="#000"></path><path fill-rule="evenodd" clip-rule="evenodd" d="M11.6 25.8a.5.5 0 0 1 .5-.5h2.33a.5.5 0 1 1 0 1H12.1a.5.5 0 0 1-.5-.5Zm6.987 0a.5.5 0 0 1 .5-.5h4.659a.5.5 0 1 1 0 1h-4.659a.5.5 0 0 1-.5-.5Zm9.317 0a.5.5 0 0 1 .5-.5h4.659a.5.5 0 1 1 0 1h-4.659a.5.5 0 0 1-.5-.5Zm9.317 0a.5.5 0 0 1 .5-.5h4.658a.5.5 0 1 1 0 1h-4.658a.5.5 0 0 1-.5-.5Zm9.317 0a.5.5 0 0 1 .5-.5h4.658a.5.5 0 1 1 0 1h-4.658a.5.5 0 0 1-.5-.5Zm9.316 0a.5.5 0 0 1 .5-.5h4.659a.5.5 0 1 1 0 1h-4.659a.5.5 0 0 1-.5-.5Zm9.317 0a.5.5 0 0 1 .5-.5H68a.5.5 0 1 1 0 1h-2.33a.5.5 0 0 1-.5-.5Z" fill="#000"></path><path d="M36.3 42.9 27 35.6c-.4-.3-.9-.3-1.3 0L17 42.9c-.2.2-.4.5-.4.8v12.8h20.1V43.7c0-.3-.1-.6-.4-.8Z" fill="#094BF4"></path><path fill-rule="evenodd" clip-rule="evenodd" d="M25.8 31.1a1.551 1.551 0 0 1 1.922.018l16 13.5a.5.5 0 0 1-.644.764L27.09 31.892a.55.55 0 0 0-.68.001L10.32 45.383a.5.5 0 1 1-.642-.766l16.1-13.5a.424.424 0 0 1 .021-.017Z" fill="#000"></path><path d="m16.6 45.2-4.4 3.3c-.3.2-.4.5-.4.8v6.1c0 .6.5 1 1 1h3.8V45.2ZM36.7 45.2l4.4 3.3c.3.2.4.5.4.8v6.1c0 .6-.5 1-1 1h-3.8V45.2Z" fill="#A8C0FF"></path><path d="M26.7 43h-.2c-2.1 0-3.8 1.7-3.8 3.8v7.6c0 .6.4 1 1 1h5.8c.6 0 1-.4 1-1v-7.6c.1-2.1-1.6-3.8-3.8-3.8Z" fill="#fff"></path><path fill-rule="evenodd" clip-rule="evenodd" d="M54.9 40.5a.5.5 0 0 1 .5-.5h13.2a.5.5 0 0 1 0 1H55.4a.5.5 0 0 1-.5-.5ZM54.9 53.6a.5.5 0 0 1 .5-.5h13.2a.5.5 0 1 1 0 1H55.4a.5.5 0 0 1-.5-.5ZM54.9 48.6a.5.5 0 0 1 .5-.5H63a.5.5 0 1 1 0 1h-7.6a.5.5 0 0 1-.5-.5Z" fill="#000"></path><path d="M53.3 40.4c0 .9-.7 1.6-1.6 1.6-.9 0-1.7-.7-1.7-1.6 0-.9.7-1.6 1.6-1.6.9 0 1.7.7 1.7 1.6ZM51.6 47c-.9 0-1.6.7-1.6 1.6 0 .9.7 1.6 1.6 1.6.9 0 1.6-.7 1.6-1.6 0-.9-.7-1.6-1.6-1.6Zm0 5c-.9 0-1.6.7-1.6 1.6 0 .9.7 1.6 1.6 1.6.9 0 1.6-.7 1.6-1.6 0-.9-.7-1.6-1.6-1.6ZM36.9 64.7a9.6 9.6 0 0 0 9.6-9.6 9.6 9.6 0 1 0-9.6 9.6Z" fill="#12CA5B"></path><path d="M36.9 46.1c5 0 9 4 9 9s-4 9-9 9-9-4-9-9 4-9 9-9Zm0-1.2c-5.6 0-10.2 4.6-10.2 10.2s4.6 10.2 10.2 10.2 10.2-4.6 10.2-10.2-4.6-10.2-10.2-10.2Z" fill="#fff"></path><path d="M33.6 49.9c-1.4 0-2.3 1-2.3 2.4v.4c0 1.5.9 2.4 2.2 2.4 1.4 0 2.3-1 2.3-2.4v-.4c0-1.4-.8-2.4-2.2-2.4Zm.5 2.8c0 .7-.2 1-.6 1-.4 0-.6-.4-.6-1v-.4c0-.7.2-1 .6-1 .4 0 .6.4.6 1v.4Zm6.1 2.5c-1.4 0-2.3 1-2.3 2.4v.4c0 1.5.9 2.4 2.2 2.4 1.4 0 2.3-1 2.3-2.4v-.4c.1-1.5-.8-2.4-2.2-2.4Zm.6 2.7c0 .7-.2 1-.6 1-.3 0-.6-.4-.6-1v-.4c0-.7.2-1 .6-1 .3 0 .6.4.6 1v.4Zm-7 1.9c-.2 0-.3-.1-.5-.2-.3-.3-.4-.7-.1-1.1l6.2-8.1c.3-.3.7-.4 1.1-.1.3.3.4.7.1 1.1l-6.2 8.1c-.2.2-.4.3-.6.3Z" fill="#fff"></path><path d="m29.5 14.4 1.1-.1 32.7-3.4 1.3 3.1" fill="#000"></path></svg>