<svg width="48" height="48" fill="none" xmlns="http://www.w3.org/2000/svg" role="img" viewBox="0 0 80 80"><path d="M68.1 12.51H13.11V67.5H68.1V12.51Z" fill="#fff"></path><path d="M68.09 12h-55a.5.5 0 0 0-.5.5v55a.5.5 0 0 0 .5.5h55a.5.5 0 0 0 .5-.5v-55a.5.5 0 0 0-.5-.5Zm-.5 22.25H41.13v-8.81c10-1.23 9.45-9.31 9.44-9.39a.5.5 0 0 0-.5-.46h-8.94V13h26.46v21.25ZM33.33 67V43.24a.5.5 0 0 0-1 0V67H13.61V35.26h8.17a.5.5 0 0 0 0-1h-8.17V13h26.52v3.08a.5.5 0 0 0 .5.5h8.95c0 1.64-.76 7.09-9 7.91a.51.51 0 0 0-.45.5v9.26h-7.3a.5.5 0 0 0-.5.5.51.51 0 0 0 .5.5h34.76V67H33.33Z" fill="#000"></path><path d="M16.6 17.9h-5.1a2 2 0 0 1-2-2v-5.14a2 2 0 0 1 2-2h5.1a2 2 0 0 1 2 2v5.14a2 2 0 0 1-2 2Zm55.13-2v-5.14a2 2 0 0 0-2-2H64.6a2 2 0 0 0-2 2v5.14a2 2 0 0 0 2 2h5.13a2 2 0 0 0 2-2ZM18.6 69.3v-5.14a2 2 0 0 0-2-2h-5.1a2 2 0 0 0-2 2v5.14a2 2 0 0 0 2 2h5.1a2 2 0 0 0 2-2Z" fill="#094BF4"></path><path d="M57.25 38.81a7.06 7.06 0 0 0-2.75-.05c-21.85 6-14.27 25-11.16 28.28H47c-3.62-3-5-7-5-12.06a16.21 16.21 0 0 1 15.25-16.17Z" fill="#000"></path><path d="M58.24 71.19A16.219 16.219 0 1 0 42.02 55a16.21 16.21 0 0 0 16.22 16.19Z" fill="#fff"></path><path d="M58.24 71.69A16.72 16.72 0 1 1 74.95 55a16.73 16.73 0 0 1-16.71 16.69Zm0-32.43A15.72 15.72 0 1 0 73.95 55a15.74 15.74 0 0 0-15.71-15.74Z" fill="#000"></path><path d="M66.82 46.69a1.19 1.19 0 0 0-.88-.35h-1a1.79 1.79 0 0 0-.53-1.23 1.69 1.69 0 0 0-1.23-.53h-.28a1.83 1.83 0 0 0-1.23.53 1.69 1.69 0 0 0-.53 1.23v.29H58.5a1.142 1.142 0 0 0-.82.36 1.12 1.12 0 0 0 0 1.63 1.139 1.139 0 0 0 .82.38h2.57v3.2a5.57 5.57 0 0 0-2.1-1.64 5.67 5.67 0 0 0-2.63-.56 7.4 7.4 0 0 0-7 7.67A7.31 7.31 0 0 0 51.19 63a7.49 7.49 0 0 0 2.31 1.73 6.57 6.57 0 0 0 5.39.12 6.358 6.358 0 0 0 2.1-1.64v.29a1.82 1.82 0 0 0 3.64 0V48.8h1.28c.327 0 .642-.126.88-.35a1.18 1.18 0 0 0 .35-.88 1.28 1.28 0 0 0-.32-.88Zm-6.09 12.53a3.52 3.52 0 0 1-.88 1.35c-.371.395-.83.696-1.34.88a3.87 3.87 0 0 1-1.58.29A3.83 3.83 0 0 1 54.7 61a4.14 4.14 0 0 1-1.7-4.16 4.27 4.27 0 0 1 1.11-2.05A4 4 0 0 1 58.5 54a4.07 4.07 0 0 1 1.81 1.47 3.69 3.69 0 0 1 .7 2.22 4.84 4.84 0 0 1-.28 1.53Z" fill="#094BF4"></path></svg>